<svg xmlns="http://www.w3.org/2000/svg" viewBox="0 0 100 100">
  <g transform="rotate(35 50 50)">
    <!-- Rocket body (blue) -->
    <path d="M50 10 C50 10, 32 38, 32 55 C32 66, 40 74, 40 74 L40 80 C40 82, 42 84, 45 84 L55 84 C58 84, 60 82, 60 80 L60 74 C60 74, 68 66, 68 55 C68 38, 50 10, 50 10 Z" fill="#0070f3"/>
    <!-- Window (white) -->
    <circle cx="50" cy="46" r="7" fill="#ffffff"/>
    <!-- Left fin (darker blue) -->
    <path d="M40 68 L24 90 L40 82 Z" fill="#005bb5"/>
    <!-- Right fin (darker blue) -->
    <path d="M60 68 L76 90 L60 82 Z" fill="#005bb5"/>
    <!-- Flame (larger tail, orange/red) -->
    <path d="M43 84 C43 84, 38 96, 50 100 C62 96, 57 84, 57 84 Z" fill="#ff6600"/>
    <path d="M46 84 C46 84, 44 92, 50 95 C56 92, 54 84, 54 84 Z" fill="#ffcc00"/>
  </g>
  <!-- Yellow stars in the sky -->
  <path d="M15 12 Q15.5 14 17 14.5 Q15.5 15 15 17 Q14.5 15 13 14.5 Q14.5 14 15 12 Z" fill="#ffeb3b"/>
  <path d="M30 6 Q30.5 8 32 8.5 Q30.5 9 30 11 Q29.5 9 28 8.5 Q29.5 8 30 6 Z" fill="#ffeb3b"/>
  <path d="M55 4 Q55.3 5.5 56.5 6 Q55.3 6.5 55 8 Q54.7 6.5 53.5 6 Q54.7 5.5 55 4 Z" fill="#ffeb3b"/>
  <path d="M78 10 Q78.5 12 80 12.5 Q78.5 13 78 15 Q77.5 13 76 12.5 Q77.5 12 78 10 Z" fill="#ffeb3b"/>
  <path d="M88 24 Q88.3 25.5 89.5 26 Q88.3 26.5 88 28 Q87.7 26.5 86.5 26 Q87.7 25.5 88 24 Z" fill="#ffeb3b"/>
  <path d="M8 28 Q8.5 30 10 30.5 Q8.5 31 8 33 Q7.5 31 6 30.5 Q7.5 30 8 28 Z" fill="#ffeb3b"/>
  <path d="M68 2 Q68.2 3.2 69.2 3.5 Q68.2 3.8 68 5 Q67.8 3.8 66.8 3.5 Q67.8 3.2 68 2 Z" fill="#ffeb3b"/>
</svg>
